<svg xmlns="http://www.w3.org/2000/svg" xmlns:xlink="http://www.w3.org/1999/xlink" width="600" zoomAndPan="magnify" viewBox="0 0 450 89.999999" height="120" preserveAspectRatio="xMidYMid meet" version="1.0"><defs><g/><clipPath id="23913249ec"><path d="M 1.769531 33 L 57 33 L 57 81.660156 L 1.769531 81.660156 Z M 1.769531 33 " clip-rule="nonzero"/></clipPath><clipPath id="a3f5cb1e8a"><path d="M 56 8.160156 L 111.269531 8.160156 L 111.269531 57 L 56 57 Z M 56 8.160156 " clip-rule="nonzero"/></clipPath></defs><g fill="#ffffff" fill-opacity="1"><g transform="translate(123.530151, 42.07503)"><g><path d="M 13.71875 0.644531 C 19.0625 0.644531 21.675781 -1.855469 22.699219 -4.851562 L 22.699219 0 L 27.625 0 L 27.625 -13.414062 L 13.148438 -13.414062 L 13.148438 -9.664062 L 22.132812 -9.664062 C 21.675781 -6.519531 19.972656 -3.902344 14.96875 -3.902344 C 9.890625 -3.902344 7.730469 -6.898438 7.730469 -12.582031 C 7.730469 -18.570312 10.195312 -21.335938 15.234375 -21.335938 C 19.441406 -21.335938 21.488281 -19.554688 21.828125 -16.675781 L 27.664062 -16.675781 C 27.210938 -22.015625 23.683594 -25.84375 15.273438 -25.84375 C 5.761719 -25.84375 1.707031 -19.972656 1.707031 -12.621094 C 1.707031 -5.304688 5.417969 0.644531 13.71875 0.644531 Z M 13.71875 0.644531 "/></g></g></g><g fill="#ffffff" fill-opacity="1"><g transform="translate(153.501189, 42.07503)"><g><path d="M 11.710938 -3.257812 C 9.019531 -3.257812 7.238281 -4.433594 6.898438 -8.035156 L 21.335938 -8.035156 C 21.410156 -8.449219 21.410156 -8.980469 21.410156 -9.550781 C 21.410156 -14.894531 18.757812 -19.554688 11.597656 -19.554688 C 4.585938 -19.554688 1.402344 -15.007812 1.402344 -9.511719 C 1.402344 -4.167969 4.207031 0.605469 11.597656 0.605469 C 18.417969 0.605469 20.84375 -2.691406 21.375 -5.722656 L 15.992188 -5.722656 C 15.460938 -4.320312 14.171875 -3.257812 11.710938 -3.257812 Z M 11.671875 -15.765625 C 14.476562 -15.765625 15.878906 -14.324219 16.066406 -11.445312 L 6.933594 -11.445312 C 7.390625 -14.664062 8.980469 -15.765625 11.671875 -15.765625 Z M 11.671875 -15.765625 "/></g></g></g><g fill="#ffffff" fill-opacity="1"><g transform="translate(176.235219, 42.07503)"><g><path d="M 13.453125 -19.25 C 10.269531 -19.25 8.5625 -17.582031 7.65625 -14.894531 L 7.65625 -18.949219 L 2.199219 -18.949219 L 2.199219 0 L 7.804688 0 L 7.804688 -7.464844 C 7.804688 -11.746094 9.09375 -13.792969 12.847656 -13.792969 L 14.703125 -13.792969 L 14.703125 -19.25 Z M 13.453125 -19.25 "/></g></g></g><g fill="#ffffff" fill-opacity="1"><g transform="translate(191.808038, 42.07503)"><g><path d="M 27.324219 -19.554688 C 23.761719 -19.554688 21.675781 -17.773438 20.539062 -15.160156 C 19.707031 -17.960938 17.660156 -19.554688 14.285156 -19.554688 C 10.988281 -19.554688 8.945312 -17.925781 7.804688 -15.5 L 7.804688 -18.949219 L 2.199219 -18.949219 L 2.199219 0 L 7.804688 0 L 7.804688 -8.601562 C 7.804688 -13.113281 9.246094 -15.007812 12.089844 -15.007812 C 14.363281 -15.007812 15.5 -13.679688 15.5 -10.839844 L 15.5 0 L 20.996094 0 L 20.996094 -8.601562 C 20.996094 -13.113281 22.433594 -15.007812 25.277344 -15.007812 C 27.550781 -15.007812 28.6875 -13.679688 28.6875 -10.839844 L 28.6875 0 L 34.296875 0 L 34.296875 -11.632812 C 34.296875 -16.597656 32.136719 -19.554688 27.324219 -19.554688 Z M 27.324219 -19.554688 "/></g></g></g><g fill="#ffffff" fill-opacity="1"><g transform="translate(228.030926, 42.07503)"><g><path d="M 7.957031 0.492188 C 11.824219 0.492188 14.097656 -1.441406 14.96875 -4.054688 C 14.96875 -2.5 15.082031 -1.25 15.273438 0 L 20.160156 0 C 19.972656 -1.628906 19.855469 -3.144531 19.855469 -4.925781 L 19.855469 -13.113281 C 19.855469 -17.128906 17.054688 -19.59375 11.292969 -19.59375 C 5.53125 -19.59375 2.199219 -16.824219 2.046875 -12.769531 L 7.542969 -12.769531 C 7.617188 -14.703125 8.828125 -15.726562 11.40625 -15.726562 C 13.945312 -15.726562 14.703125 -14.855469 14.703125 -13.527344 C 14.703125 -12.429688 14.097656 -11.9375 12.355469 -11.632812 L 7.882812 -10.875 C 2.992188 -10.042969 1.667969 -8.070312 1.667969 -5.039062 C 1.667969 -1.628906 4.128906 0.492188 7.957031 0.492188 Z M 9.851562 -3.335938 C 8.335938 -3.335938 7.199219 -4.09375 7.199219 -5.609375 C 7.199219 -7.046875 7.996094 -7.769531 10.003906 -8.261719 L 11.597656 -8.640625 C 12.769531 -8.90625 13.71875 -9.171875 14.703125 -9.851562 L 14.703125 -9.019531 C 14.703125 -5.496094 12.808594 -3.335938 9.851562 -3.335938 Z M 9.851562 -3.335938 "/></g></g></g><g fill="#ffffff" fill-opacity="1"><g transform="translate(249.969274, 42.07503)"><g><path d="M 14.628906 -19.554688 C 11.179688 -19.554688 9.019531 -17.8125 7.804688 -15.234375 L 7.804688 -18.949219 L 2.199219 -18.949219 L 2.199219 0 L 7.804688 0 L 7.804688 -8.601562 C 7.804688 -13.113281 9.472656 -15.007812 12.46875 -15.007812 C 14.78125 -15.007812 16.066406 -13.792969 16.066406 -10.761719 L 16.066406 0 L 21.675781 0 L 21.675781 -11.632812 C 21.675781 -16.597656 19.59375 -19.554688 14.628906 -19.554688 Z M 14.628906 -19.554688 "/></g></g></g><g fill="#ffffff" fill-opacity="1"><g transform="translate(273.574783, 42.07503)"><g><path d="M 11.898438 0.605469 C 19.476562 0.605469 22.394531 -4.246094 22.394531 -9.511719 C 22.394531 -14.703125 19.476562 -19.554688 11.898438 -19.554688 C 4.359375 -19.554688 1.402344 -14.742188 1.402344 -9.511719 C 1.402344 -4.207031 4.359375 0.605469 11.898438 0.605469 Z M 7.046875 -9.472656 C 7.046875 -13.679688 8.488281 -15.160156 11.898438 -15.160156 C 15.347656 -15.160156 16.789062 -13.679688 16.789062 -9.472656 C 16.789062 -5.265625 15.347656 -3.789062 11.898438 -3.789062 C 8.488281 -3.789062 7.046875 -5.265625 7.046875 -9.472656 Z M 7.046875 -9.472656 "/></g></g></g><g fill="#ffffff" fill-opacity="1"><g transform="translate(297.369734, 42.07503)"><g/></g></g><g fill="#ffffff" fill-opacity="1"><g transform="translate(306.955908, 42.07503)"><g><path d="M 33.652344 -25.199219 L 23.914062 -25.199219 L 18 -5.683594 L 12.089844 -25.199219 L 2.199219 -25.199219 L 2.199219 0 L 7.921875 0 L 7.921875 -21.523438 L 14.589844 0 L 21.257812 0 L 27.890625 -21.410156 L 27.890625 0 L 33.652344 0 Z M 33.652344 -25.199219 "/></g></g></g><g fill="#ffffff" fill-opacity="1"><g transform="translate(342.761996, 42.07503)"><g><path d="M 7.957031 0.492188 C 11.824219 0.492188 14.097656 -1.441406 14.96875 -4.054688 C 14.96875 -2.5 15.082031 -1.25 15.273438 0 L 20.160156 0 C 19.972656 -1.628906 19.855469 -3.144531 19.855469 -4.925781 L 19.855469 -13.113281 C 19.855469 -17.128906 17.054688 -19.59375 11.292969 -19.59375 C 5.53125 -19.59375 2.199219 -16.824219 2.046875 -12.769531 L 7.542969 -12.769531 C 7.617188 -14.703125 8.828125 -15.726562 11.40625 -15.726562 C 13.945312 -15.726562 14.703125 -14.855469 14.703125 -13.527344 C 14.703125 -12.429688 14.097656 -11.9375 12.355469 -11.632812 L 7.882812 -10.875 C 2.992188 -10.042969 1.667969 -8.070312 1.667969 -5.039062 C 1.667969 -1.628906 4.128906 0.492188 7.957031 0.492188 Z M 9.851562 -3.335938 C 8.335938 -3.335938 7.199219 -4.09375 7.199219 -5.609375 C 7.199219 -7.046875 7.996094 -7.769531 10.003906 -8.261719 L 11.597656 -8.640625 C 12.769531 -8.90625 13.71875 -9.171875 14.703125 -9.851562 L 14.703125 -9.019531 C 14.703125 -5.496094 12.808594 -3.335938 9.851562 -3.335938 Z M 9.851562 -3.335938 "/></g></g></g><g fill="#ffffff" fill-opacity="1"><g transform="translate(364.700344, 42.07503)"><g><path d="M 13.453125 -19.25 C 10.269531 -19.25 8.5625 -17.582031 7.65625 -14.894531 L 7.65625 -18.949219 L 2.199219 -18.949219 L 2.199219 0 L 7.804688 0 L 7.804688 -7.464844 C 7.804688 -11.746094 9.09375 -13.792969 12.847656 -13.792969 L 14.703125 -13.792969 L 14.703125 -19.25 Z M 13.453125 -19.25 "/></g></g></g><g fill="#ffffff" fill-opacity="1"><g transform="translate(380.273163, 42.07503)"><g><path d="M 1.402344 -9.472656 C 1.402344 -4.167969 4.507812 0.605469 11.898438 0.605469 C 18.570312 0.605469 21.714844 -3.371094 21.828125 -7.804688 L 16.371094 -7.804688 C 16.144531 -5.53125 14.816406 -3.789062 11.824219 -3.789062 C 8.792969 -3.789062 7.046875 -5.191406 7.046875 -9.472656 C 7.046875 -13.71875 8.867188 -15.160156 11.898438 -15.160156 C 14.78125 -15.160156 16.066406 -13.605469 16.257812 -11.253906 L 21.714844 -11.253906 C 21.5625 -15.917969 18.339844 -19.554688 11.785156 -19.554688 C 4.433594 -19.554688 1.402344 -14.78125 1.402344 -9.472656 Z M 1.402344 -9.472656 "/></g></g></g><g fill="#ffffff" fill-opacity="1"><g transform="translate(403.348195, 42.07503)"><g><path d="M 11.898438 0.605469 C 19.476562 0.605469 22.394531 -4.246094 22.394531 -9.511719 C 22.394531 -14.703125 19.476562 -19.554688 11.898438 -19.554688 C 4.359375 -19.554688 1.402344 -14.742188 1.402344 -9.511719 C 1.402344 -4.207031 4.359375 0.605469 11.898438 0.605469 Z M 7.046875 -9.472656 C 7.046875 -13.679688 8.488281 -15.160156 11.898438 -15.160156 C 15.347656 -15.160156 16.789062 -13.679688 16.789062 -9.472656 C 16.789062 -5.265625 15.347656 -3.789062 11.898438 -3.789062 C 8.488281 -3.789062 7.046875 -5.265625 7.046875 -9.472656 Z M 7.046875 -9.472656 "/></g></g></g><g fill="#ffffff" fill-opacity="1"><g transform="translate(427.143146, 42.07503)"><g><path d="M 0.984375 -6.175781 C 1.097656 -2.578125 3.636719 0.605469 10.382812 0.605469 C 16.902344 0.605469 19.25 -1.96875 19.25 -5.683594 C 19.25 -9.058594 17.546875 -10.988281 13.035156 -11.558594 L 9.058594 -12.011719 C 7.164062 -12.242188 6.667969 -13 6.667969 -13.945312 C 6.667969 -15.160156 7.65625 -16.066406 10.082031 -16.066406 C 12.429688 -16.066406 13.605469 -14.96875 13.792969 -13.414062 L 18.984375 -13.414062 C 18.644531 -17.582031 15.195312 -19.59375 10.082031 -19.59375 C 5.039062 -19.59375 1.476562 -17.621094 1.476562 -13.414062 C 1.476562 -10.230469 3.410156 -8.335938 6.972656 -7.882812 L 11.21875 -7.351562 C 13.339844 -7.085938 13.871094 -6.253906 13.871094 -5.117188 C 13.871094 -3.789062 13 -2.917969 10.460938 -2.917969 C 7.617188 -2.917969 6.253906 -4.359375 6.101562 -6.175781 Z M 0.984375 -6.175781 "/></g></g></g><g fill="#ffffff" fill-opacity="1"><g transform="translate(126.757292, 66.800704)"><g><path d="M 4.960938 -9.589844 L 0.980469 -9.589844 L 0.980469 0 L 4.960938 0 C 8.101562 0 9.429688 -2.175781 9.429688 -4.816406 C 9.429688 -7.425781 8.101562 -9.589844 4.960938 -9.589844 Z M 4.742188 -0.964844 L 2.175781 -0.964844 L 2.175781 -8.621094 L 4.742188 -8.621094 C 7.308594 -8.621094 8.175781 -7.253906 8.175781 -4.816406 C 8.175781 -2.378906 7.296875 -0.964844 4.742188 -0.964844 Z M 4.742188 -0.964844 "/></g></g></g><g fill="#ffffff" fill-opacity="1"><g transform="translate(146.005816, 66.800704)"><g><path d="M 2.175781 -0.964844 L 2.175781 -4.457031 L 7.640625 -4.457031 L 7.640625 -5.40625 L 2.175781 -5.40625 L 2.175781 -8.621094 L 8.074219 -8.621094 L 8.074219 -9.589844 L 0.980469 -9.589844 L 0.980469 0 L 8.117188 0 L 8.117188 -0.964844 Z M 2.175781 -0.964844 "/></g></g></g><g fill="#ffffff" fill-opacity="1"><g transform="translate(164.129705, 66.800704)"><g><path d="M 8.003906 -9.589844 L 5.304688 -2.191406 C 5.160156 -1.773438 5.015625 -1.339844 4.902344 -0.921875 C 4.785156 -1.339844 4.644531 -1.773438 4.484375 -2.191406 L 1.800781 -9.589844 L 0.546875 -9.589844 L 4.023438 0 L 5.753906 0 L 9.214844 -9.589844 Z M 8.003906 -9.589844 "/></g></g></g><g fill="#ffffff" fill-opacity="1"><g transform="translate(183.003359, 66.800704)"><g><path d="M 2.175781 -0.964844 L 2.175781 -4.457031 L 7.640625 -4.457031 L 7.640625 -5.40625 L 2.175781 -5.40625 L 2.175781 -8.621094 L 8.074219 -8.621094 L 8.074219 -9.589844 L 0.980469 -9.589844 L 0.980469 0 L 8.117188 0 L 8.117188 -0.964844 Z M 2.175781 -0.964844 "/></g></g></g><g fill="#ffffff" fill-opacity="1"><g transform="translate(201.127247, 66.800704)"><g><path d="M 2.175781 -0.964844 L 2.175781 -9.589844 L 0.980469 -9.589844 L 0.980469 0 L 7.195312 0 L 7.195312 -0.964844 Z M 2.175781 -0.964844 "/></g></g></g><g fill="#ffffff" fill-opacity="1"><g transform="translate(217.737199, 66.800704)"><g><path d="M 5.566406 0.246094 C 8.894531 0.246094 10.351562 -1.917969 10.351562 -4.800781 C 10.351562 -7.640625 8.894531 -9.847656 5.566406 -9.847656 C 2.234375 -9.847656 0.792969 -7.65625 0.792969 -4.800781 C 0.792969 -1.902344 2.234375 0.246094 5.566406 0.246094 Z M 2.046875 -4.800781 C 2.046875 -7.496094 3.113281 -8.851562 5.566406 -8.851562 C 8.015625 -8.851562 9.097656 -7.496094 9.097656 -4.800781 C 9.097656 -2.105469 8.015625 -0.75 5.566406 -0.75 C 3.113281 -0.75 2.046875 -2.105469 2.046875 -4.800781 Z M 2.046875 -4.800781 "/></g></g></g><g fill="#ffffff" fill-opacity="1"><g transform="translate(237.980589, 66.800704)"><g><path d="M 5.378906 -9.589844 L 0.980469 -9.589844 L 0.980469 0 L 2.191406 0 L 2.191406 -3.980469 L 5.320312 -3.980469 C 7.441406 -3.980469 8.277344 -5.261719 8.277344 -6.792969 C 8.277344 -8.332031 7.441406 -9.589844 5.378906 -9.589844 Z M 5.074219 -4.945312 L 2.191406 -4.945312 L 2.191406 -8.621094 L 5.117188 -8.621094 C 6.503906 -8.621094 7.023438 -7.929688 7.023438 -6.792969 C 7.023438 -5.695312 6.503906 -4.945312 5.074219 -4.945312 Z M 5.074219 -4.945312 "/></g></g></g><g fill="#ffffff" fill-opacity="1"><g transform="translate(255.960299, 66.800704)"><g><path d="M 2.175781 -0.964844 L 2.175781 -4.457031 L 7.640625 -4.457031 L 7.640625 -5.40625 L 2.175781 -5.40625 L 2.175781 -8.621094 L 8.074219 -8.621094 L 8.074219 -9.589844 L 0.980469 -9.589844 L 0.980469 0 L 8.117188 0 L 8.117188 -0.964844 Z M 2.175781 -0.964844 "/></g></g></g><g fill="#ffffff" fill-opacity="1"><g transform="translate(274.084186, 66.800704)"><g><path d="M 8.089844 -2.539062 C 8.089844 -3.949219 7.441406 -4.382812 6.53125 -4.644531 C 7.597656 -4.886719 8.390625 -5.78125 8.390625 -7.066406 C 8.390625 -8.609375 7.425781 -9.589844 5.449219 -9.589844 L 0.980469 -9.589844 L 0.980469 0 L 2.175781 0 L 2.175781 -4.296875 L 4.875 -4.296875 C 6.199219 -4.296875 6.933594 -3.734375 6.933594 -2.363281 L 6.933594 -1.484375 C 6.933594 -0.792969 7.007812 -0.316406 7.109375 0 L 8.277344 0 C 8.191406 -0.359375 8.089844 -0.820312 8.089844 -1.527344 Z M 5.304688 -5.191406 L 2.175781 -5.191406 L 2.175781 -8.621094 L 5.320312 -8.621094 C 6.574219 -8.621094 7.136719 -8.074219 7.136719 -6.964844 C 7.136719 -5.867188 6.648438 -5.191406 5.304688 -5.191406 Z M 5.304688 -5.191406 "/></g></g></g><g clip-path="url(#23913249ec)"><path fill="#0055ff" d="M 38.640625 67.578125 L 38.640625 74.230469 L 8.453125 60.234375 L 8.453125 54.835938 L 38.640625 40.839844 L 38.640625 47.496094 L 15.8125 57.472656 L 15.8125 57.597656 Z M 56.566406 33.449219 L 6.085938 33.449219 C 3.703125 33.449219 1.773438 35.378906 1.773438 37.757812 L 1.773438 77.316406 C 1.773438 79.695312 3.703125 81.621094 6.085938 81.621094 L 42.550781 81.621094 L 56.566406 33.449219 " fill-opacity="1" fill-rule="nonzero"/></g><g clip-path="url(#a3f5cb1e8a)"><path fill="#00fffc" d="M 104.59375 35.160156 L 74.410156 48.96875 L 74.410156 42.316406 L 97.738281 32.335938 L 97.738281 32.210938 L 74.410156 22.230469 L 74.410156 15.578125 L 104.59375 29.386719 Z M 70.578125 8.1875 L 56.566406 56.359375 L 106.960938 56.359375 C 109.34375 56.359375 111.277344 54.433594 111.277344 52.050781 L 111.277344 12.492188 C 111.277344 10.117188 109.34375 8.1875 106.960938 8.1875 L 70.578125 8.1875 " fill-opacity="1" fill-rule="nonzero"/></g></svg>